name ./resultDataOpenSim/trcMotMarkerGrf/sub06/grf-02-02.mot
datacolumns 19
datarows 15
range 0.96400000 1.02000000
endheader

                time	     ground_force_vx	     ground_force_vy	     ground_force_vz	     ground_force_px	     ground_force_py	     ground_force_pz	   l_ground_force_vx	   l_ground_force_vy	   l_ground_force_vz	   l_ground_force_px	   l_ground_force_py	   l_ground_force_pz	     ground_torque_x	     ground_torque_y	     ground_torque_z	   l_ground_torque_x	   l_ground_torque_y	   l_ground_torque_z	
          0.96400000	          0.00000000	          0.00000000	          0.00000000	          0.00000000	          0.00000000	          0.00000000	         68.01442002	        523.69456809	         23.46460618	          0.07370039	         -0.02500000	         -0.06456390	          0.00000000	          0.00000000	          0.00000000	          0.00000000	         -2.01882361	          0.00000000	
          0.96800000	          0.00000000	          0.00000000	          0.00000000	          0.00000000	          0.00000000	          0.00000000	         72.73924670	        546.72417412	         27.11819147	          0.07379345	         -0.02500000	         -0.06491498	          0.00000000	          0.00000000	          0.00000000	          0.00000000	         -1.98677845	          0.00000000	
          0.97200000	          0.00000000	          0.00000000	          0.00000000	          0.00000000	          0.00000000	          0.00000000	         77.69857091	        570.66145705	         30.84638777	          0.07393841	         -0.02500000	         -0.06522240	          0.00000000	          0.00000000	          0.00000000	          0.00000000	         -1.95596830	          0.00000000	
          0.97600000	          0.00000000	          0.00000000	          0.00000000	          0.00000000	          0.00000000	          0.00000000	         83.01554480	        595.26815049	         34.52732743	          0.07413852	         -0.02500000	         -0.06545449	          0.00000000	          0.00000000	          0.00000000	          0.00000000	         -1.93235292	          0.00000000	
          0.98000000	          0.00000000	          0.00000000	          0.00000000	          0.00000000	          0.00000000	          0.00000000	         88.75113321	        620.21292879	         38.04417836	          0.07436161	         -0.02500000	         -0.06560863	          0.00000000	          0.00000000	          0.00000000	          0.00000000	         -1.92104689	          0.00000000	
          0.98400000	          0.00000000	          0.00000000	          0.00000000	          0.00000000	          0.00000000	          0.00000000	         94.90328587	        645.04461132	         41.28704633	          0.07459844	         -0.02500000	         -0.06569092	          0.00000000	          0.00000000	          0.00000000	          0.00000000	         -1.92619055	          0.00000000	
          0.98800000	          0.00000000	          0.00000000	          0.00000000	          0.00000000	          0.00000000	          0.00000000	        101.43632875	        669.24368282	         44.16324564	          0.07487092	         -0.02500000	         -0.06570199	          0.00000000	          0.00000000	          0.00000000	          0.00000000	         -1.95095221	          0.00000000	
          0.99200000	          0.00000000	          0.00000000	          0.00000000	          0.00000000	          0.00000000	          0.00000000	        108.30331649	        692.27954388	         46.59694542	          0.07519178	         -0.02500000	         -0.06564390	          0.00000000	          0.00000000	          0.00000000	          0.00000000	         -1.99749018	          0.00000000	
          0.99600000	          0.00000000	          0.00000000	          0.00000000	          0.00000000	          0.00000000	          0.00000000	        115.45890507	        713.63728579	         48.53103662	          0.07557880	         -0.02500000	         -0.06550018	          0.00000000	          0.00000000	          0.00000000	          0.00000000	         -2.06676688	          0.00000000	
          1.00000000	          0.00000000	          0.00000000	          0.00000000	          0.00000000	          0.00000000	          0.00000000	        122.87178060	        732.88493510	         49.94331125	          0.07605550	         -0.02500000	         -0.06524791	          0.00000000	          0.00000000	          0.00000000	          0.00000000	         -2.15824064	          0.00000000	
          1.00400000	          0.00000000	          0.00000000	          0.00000000	          0.00000000	          0.00000000	          0.00000000	        130.51097300	        749.77611042	         50.84952109	          0.07662851	         -0.02500000	         -0.06489121	          0.00000000	          0.00000000	          0.00000000	          0.00000000	         -2.26956862	          0.00000000	
          1.00800000	          0.00000000	          0.00000000	          0.00000000	          0.00000000	          0.00000000	          0.00000000	        138.30948088	        764.23800162	         51.27690827	          0.07727362	         -0.02500000	         -0.06447209	          0.00000000	          0.00000000	          0.00000000	          0.00000000	         -2.39645057	          0.00000000	
          1.01200000	          0.00000000	          0.00000000	          0.00000000	          0.00000000	          0.00000000	          0.00000000	        146.15693679	        776.22377815	         51.25504915	          0.07797319	         -0.02500000	         -0.06401948	          0.00000000	          0.00000000	          0.00000000	          0.00000000	         -2.53267473	          0.00000000	
          1.01600000	          0.00000000	          0.00000000	          0.00000000	          0.00000000	          0.00000000	          0.00000000	        153.93778482	        785.60378318	         50.84616104	          0.07872850	         -0.02500000	         -0.06354907	          0.00000000	          0.00000000	          0.00000000	          0.00000000	         -2.67043655	          0.00000000	
          1.02000000	          0.00000000	          0.00000000	          0.00000000	          0.00000000	          0.00000000	          0.00000000	        161.56842399	        792.19078462	         50.16058193	          0.07952281	         -0.02500000	         -0.06308920	          0.00000000	          0.00000000	          0.00000000	          0.00000000	         -2.80104863	          0.00000000	
